# xmcd
# Copyright (C) 1995-1998 Ti Kan
#
# Track frame offsets:
#       150
#       19643
#       41697
#       60511
#       76861
#       105019
#       125122
#       144945
#       164366
#       181615
#       204247
#
# Disc length: 3025 seconds
#
# Revision: 0
# Processed by: cddbd v1.4PL0 Copyright (c) Steve Scherf et al.
# Submitted via: CD-Transfer v1.0
#
DISCID=7c0bcf0b
DTITLE=Dembahl - Peaceconference
DYEAR=2003
DGENRE=
TTITLE0=The Gods Are Sailing
TTITLE1=I'm Alive Today
TTITLE2=Guardian
TTITLE3=When You're Done
TTITLE4=Peaceconference
TTITLE5=Keep Your Love
TTITLE6=Heal
TTITLE7=Nightfalls
TTITLE8=Rearise
TTITLE9=Far From Defeated
TTITLE10=Whishful Thinking At Its Best
EXTD=
EXTT0=
EXTT1=
EXTT2=
EXTT3=
EXTT4=
EXTT5=
EXTT6=
EXTT7=
EXTT8=
EXTT9=
EXTT10=
PLAYORDER=
